<svg xmlns="http://www.w3.org/2000/svg" viewBox="0 0 512 512" width="512" height="512">
  <defs>
    <linearGradient id="shieldGradient" x1="0%" y1="0%" x2="100%" y2="100%">
      <stop offset="0%" style="stop-color:#e94560;stop-opacity:1" />
      <stop offset="100%" style="stop-color:#ff6b6b;stop-opacity:1" />
    </linearGradient>
    <linearGradient id="bgGradient" x1="0%" y1="0%" x2="100%" y2="100%">
      <stop offset="0%" style="stop-color:#1a1a2e;stop-opacity:1" />
      <stop offset="100%" style="stop-color:#16213e;stop-opacity:1" />
    </linearGradient>
  </defs>
  
  <rect width="512" height="512" rx="80" fill="url(#bgGradient)"/>
  
  <path d="M256 40C136.7 40 40 136.7 40 256c0 80.5 52.3 148.3 124.8 172.6C172.7 414.7 184 396 200 380c16-16 40-16 56 0l8 8c16 16 40 16 56 0 16-16 27.3-34.7 34.2-55.4 72.5-24.3 124.8-92.1 124.8-172.6C472 136.7 375.3 40 256 40zm0 40c55.2 0 104 44.8 104 100 0 55.2-33.6 97.6-80 121.6-4.8 2.4-10.4 2.4-15.2 0-46.4-24-80-66.4-80-121.6C152 84.8 200.8 40 256 40z" fill="url(#shieldGradient)"/>
  
  <path d="M256 120c-22.1 0-40 17.9-40 40s17.9 40 40 40 40-17.9 40-40-17.9-40-40-40zm0 64c-13.3 0-24-10.7-24-24s10.7-24 24-24 24 10.7 24 24-10.7 24-24 24z" fill="#fff" opacity="0.9"/>
  
  <circle cx="256" cy="380" r="24" fill="#fff" opacity="0.2"/>
  <path d="M240 380h32M256 364v32" stroke="#fff" stroke-width="4" stroke-linecap="round" opacity="0.7"/>
</svg>